<?xml version="1.0" encoding="utf-8"?>
<!-- Generator: Adobe Illustrator 27.5.0, SVG Export Plug-In . SVG Version: 6.00 Build 0)  -->
<svg version="1.1" xmlns="http://www.w3.org/2000/svg" xmlns:xlink="http://www.w3.org/1999/xlink" x="0px" y="0px"
	 viewBox="0 0 500 500" style="enable-background:new 0 0 500 500;" xml:space="preserve">
<g id="BACKGROUND">
</g>
<g id="OBJECTS">
	<g>
		<g>
			<path style="opacity:0.96;fill:#ECECEC;" d="M207.267,335.082c-4.067-0.017-8.139-0.18-12.215-0.514
				c-44.672-3.662-96.423-24.993-118.665-63.831c-19.446-33.953-27.081-77.911-18.227-115.778
				c8.323-35.595,34.127-64.429,70.26-75.378c40.636-12.313,85.548,2.648,125.534-14.168
				c58.199-24.475,131.348-5.038,172.136,41.529c36.163,41.286,44.916,107.859,33.564,159.441
				c-5.737,26.069-20.829,51.177-44.852,64.302c-19.114,10.443-42.219,12.502-64.076,9.78c-17.574-2.188-33.754-7.92-50.66-12.637
				c-13.551-3.781-24.67-1.813-38.54,0.932C243.676,332.292,225.525,335.158,207.267,335.082z"/>
			<path style="fill:#FFFFFF;" d="M283.595,110.632H398.86l-16.751-5.654c0,0-2.156-10.984-7.795-10.984
				c-5.639,0-9.453,6.784-9.453,6.784s0.166-22.775-14.263-22.775c-14.429,0-17.58,22.291-17.58,22.291s-3.483-11.145-11.277-11.145
				c-7.795,0-10.78,14.215-10.78,14.215L283.595,110.632z"/>
		</g>
		<g>
			<ellipse style="fill:#330202;" cx="271.339" cy="427.701" rx="167.776" ry="7.409"/>
			<g>
				<g>
					<path style="fill:#EDB62B;" d="M261.975,406.292c0,0,66.628-4.45,60.621-23.439c-6.007-18.989-35.834,0.581-35.834,0.581
						s23.407-16.897,24.208-36.22c0.801-19.323-43.468,31.396-43.468,31.396s13.318-16.696,12.297-36.84
						C278.777,321.625,248.638,352.972,261.975,406.292z"/>
					<path style="opacity:0.39;fill:#A87D1D;" d="M265.184,395.772c0,0,47.336-59.776,35.583-41.122
						C289.014,373.304,265.184,395.772,265.184,395.772z"/>
					<path style="opacity:0.39;fill:#A87D1D;" d="M313.387,384.157l-45.803,12.075C267.584,396.232,307.977,391.347,313.387,384.157
						z"/>
					<path style="opacity:0.39;fill:#A87D1D;" d="M273.118,346.429l-11.925,36.811C261.193,383.24,265.429,352.563,273.118,346.429z
						"/>
				</g>
				<g>
					<g>
						<path style="fill:#FFC900;" d="M123.443,233.163c0,0-20.787-45.757-63.323-53.249c-42.536-7.492,60.604,67.138,60.604,67.138
							L123.443,233.163z"/>
						<path style="opacity:0.39;fill:#A87D1D;" d="M121.661,242.267c0,0-41.292-46.714-54.862-52.643
							c-13.57-5.929,36.462,13.391,55.341,50.198C121.661,242.267,121.661,242.267,121.661,242.267z"/>
					</g>
					<g>
						<path style="fill:#FFC900;" d="M132.329,236.093c0,0,0.228-50.257-35.289-74.833c-35.517-24.576,27.016,86.316,27.016,86.316
							L132.329,236.093z"/>
						<path style="opacity:0.39;fill:#A87D1D;" d="M126.907,243.62c0,0-18.002-59.692-27.854-70.747
							c-9.853-11.056,27.534,27.398,29.311,68.726C126.907,243.62,126.907,243.62,126.907,243.62z"/>
					</g>
				</g>
				<g>
					<path style="fill:#CECECE;" d="M128.029,311.397c0,0-19.192,33.686-50.669,9.694c20.137-2.602,23.719-13.292,23.719-13.292
						s-25.093,19.183-42.723-4.332c20.855-2.114,26.221-10.019,26.221-10.019s-20.572-2.942-28.068,0.368
						c-7.495,3.31-6.247-16.313-6.247-16.313s31.834,7.666,35.61,3.817c3.777-3.849-36.135-13.096-36.135-13.096l1.285-9.625
						c0,0,27.475,12.877,19.597,4.379c-7.879-8.497-14.86-9.037-14.86-9.037l7.343-13.911l24.731-4.732
						c0,0,5.912,27.632,10.711,29.84c4.799,2.208-3.473-31.225-3.473-31.225l13.68,6.137c0,0-0.813,25.167,2.665,27.003
						c3.478,1.836,3.802-22.612,3.802-22.612s9.342,6.341,7.491,26.079c3.478,1.836,10.91-8.34,8.576-17.273
						C145.243,283.718,139.054,303.66,128.029,311.397z"/>
					<path style="opacity:0.53;fill:#5A5A66;" d="M73.225,253.726c0,0,42.052,26.971,52.302,54.398
						C102.866,281.195,73.225,253.726,73.225,253.726z"/>
					<path style="opacity:0.53;fill:#5A5A66;" d="M101.586,286.569l-21.748,1.725C79.838,288.293,99.781,291.989,101.586,286.569z"
						/>
					<path style="opacity:0.53;fill:#5A5A66;" d="M110.147,296.299L88.58,303.47C88.58,303.47,110.187,301.853,110.147,296.299z"/>
					<path style="opacity:0.53;fill:#5A5A66;" d="M117.449,306.879c0,0-5.111,9.633-16.123,15.468
						C109.243,320.223,119.432,312.995,117.449,306.879z"/>
					<path style="opacity:0.53;fill:#5A5A66;" d="M123.468,297.363c0,0,8.868-12.415,8.611-19.065
						C132.293,290.032,128.814,298.127,123.468,297.363z"/>
					<path style="opacity:0.53;fill:#5A5A66;" d="M112.955,283.176c0,0,6.35-11.162,4.86-20.012
						C120.046,276.947,116.498,282.396,112.955,283.176z"/>
					<path style="opacity:0.53;fill:#5A5A66;" d="M105.689,272.995c0,0,3.172-9.945-1.097-18.466
						C104.202,268.407,103.422,272.819,105.689,272.995z"/>
					<path style="opacity:0.53;fill:#5A5A66;" d="M89.112,258.505l-3.815-11.45C85.297,247.055,83.058,256.735,89.112,258.505z"/>
				</g>
				<g>
					<path style="fill:#EDB62B;" d="M120.141,402.183c0,0-90.599,4.23-85.41-22.319c5.19-26.549,48.448-4.722,48.448-4.722
						s-34.184-19.207-38.233-45.16c-4.049-25.953,63.484,35.692,63.484,35.692s-20.537-20.485-22.254-47.827
						C84.458,290.505,129.948,328.178,120.141,402.183z"/>
					<path style="opacity:0.39;fill:#A87D1D;" d="M114.194,388.479c0,0-73.063-73.396-54.337-50.028
						C78.584,361.819,114.194,388.479,114.194,388.479z"/>
					<path style="opacity:0.39;fill:#A87D1D;" d="M47.358,380.21l63.667,9.258C111.026,389.469,55.764,389.082,47.358,380.21z"/>
					<path style="opacity:0.39;fill:#A87D1D;" d="M95.906,323.109l21.748,47.845C117.654,370.954,107.225,330.206,95.906,323.109z"
						/>
				</g>
				<path style="fill:#2F2F35;" d="M130.319,426.302h126.418c10.526,0,19.059-8.533,19.059-19.059V117.378
					c0-10.526-8.533-19.06-19.059-19.06H130.319c-10.526,0-19.059,8.533-19.059,19.06v289.865
					C111.26,417.769,119.793,426.302,130.319,426.302z"/>
				<path style="fill:none;stroke:#9191A3;stroke-width:0.9332;stroke-miterlimit:10;" d="M138.298,424.861h126.418
					c10.526,0,19.059-8.479,19.059-18.939V117.883c0-10.46-8.533-18.939-19.059-18.939H138.298c-10.526,0-19.06,8.479-19.06,18.939
					v288.039C119.239,416.382,127.772,424.861,138.298,424.861z"/>
				<path style="fill:#5A5A66;" d="M150.001,426.302h126.418c10.526,0,19.059-8.533,19.059-19.059V117.378
					c0-10.526-8.533-19.06-19.059-19.06H150.001c-10.526,0-19.059,8.533-19.059,19.06v289.865
					C130.941,417.769,139.474,426.302,150.001,426.302z"/>
				<path style="fill:#FFFFFD;" d="M144.478,407.456h137.462c4.88,0,8.836-3.956,8.836-8.836V115.535
					c0-4.88-3.956-8.836-8.836-8.836H144.478c-4.88,0-8.836,3.956-8.836,8.836V398.62
					C135.642,403.5,139.598,407.456,144.478,407.456z"/>
				<path style="fill:#FFFFFF;" d="M206.923,416.616c0,3.472,2.815,6.287,6.287,6.287c3.472,0,6.287-2.815,6.287-6.287
					c0-3.472-2.815-6.287-6.287-6.287C209.737,410.328,206.923,413.143,206.923,416.616z"/>
				<g>
					<path style="fill:#5A5A66;" d="M121.362,145.859c2.345,0,4.247,1.901,4.247,4.247v24.95c0,2.345-1.901,4.247-4.247,4.247
						h-4.247v-4.247v-24.95v-4.247H121.362z"/>
					<path style="fill:#A9A7AA;" d="M112.869,175.055c0,2.345,1.901,4.247,4.247,4.247l0,0c2.345,0,4.247-1.901,4.247-4.247v-24.95
						c0-2.345-1.902-4.247-4.247-4.247l0,0c-2.345,0-4.247,1.901-4.247,4.247V175.055z"/>
				</g>
				<g>
					<path style="fill:#5A5A66;" d="M121.362,185.672c2.345,0,4.247,1.901,4.247,4.247v24.95c0,2.345-1.901,4.247-4.247,4.247
						h-4.247v-4.247v-24.95v-4.247H121.362z"/>
					<path style="fill:#A9A7AA;" d="M112.869,214.869c0,2.345,1.901,4.247,4.247,4.247l0,0c2.345,0,4.247-1.901,4.247-4.247v-24.95
						c0-2.346-1.902-4.247-4.247-4.247l0,0c-2.345,0-4.247,1.901-4.247,4.247V214.869z"/>
				</g>
				<path style="fill:#ECECEC;" d="M152.839,301.39h118.859c4.771,0,8.638-3.867,8.638-8.638V135.923
					c0-4.771-3.867-8.638-8.638-8.638H152.839c-4.771,0-8.638,3.867-8.638,8.638v156.829
					C144.201,297.523,148.069,301.39,152.839,301.39z"/>
				<path style="fill:#ECECEC;" d="M149.948,398.37h124.641c3.174,0,5.747-2.573,5.747-5.747v-80.177
					c0-3.174-2.573-5.747-5.747-5.747H149.948c-3.174,0-5.747,2.573-5.747,5.747v80.177
					C144.201,395.797,146.774,398.37,149.948,398.37z"/>
				<path style="fill:#5A5A66;" d="M259.342,108.406c0,4.321-3.503,7.825-7.825,7.825h-76.16c-4.321,0-7.825-3.503-7.825-7.825l0,0
					c0-4.321,3.503-7.825,7.825-7.825h76.16C255.839,100.581,259.342,104.084,259.342,108.406L259.342,108.406z"/>
				<g>
					
						<line style="fill:none;stroke:#5A5A66;stroke-width:1.6105;stroke-miterlimit:10;" x1="157.267" y1="138.831" x2="172.836" y2="138.831"/>
					
						<line style="fill:none;stroke:#5A5A66;stroke-width:1.6105;stroke-miterlimit:10;" x1="157.267" y1="144.444" x2="172.836" y2="144.444"/>
					
						<line style="fill:none;stroke:#5A5A66;stroke-width:1.6105;stroke-miterlimit:10;" x1="157.267" y1="150.057" x2="172.836" y2="150.057"/>
				</g>
				<path style="fill:#5A5A66;" d="M232.727,140.252c0-3.222-7.688-5.027-7.688,0c0,7.991,7.688,11.513,7.688,11.513
					s7.688-3.522,7.688-11.513C240.415,135.226,232.727,137.03,232.727,140.252z"/>
				<g>
					<polygon style="fill:#5A5A66;" points="264.854,148.332 252.49,148.332 251.388,138.831 265.956,138.831 					"/>
					<circle style="fill:#5A5A66;" cx="255.4" cy="150.232" r="1.9"/>
					<circle style="fill:#5A5A66;" cx="261.945" cy="150.232" r="1.9"/>
					<rect x="263.845" y="138.831" style="fill:#5A5A66;" width="6.123" height="2.069"/>
				</g>
				<rect x="151.371" y="314.354" style="fill:#FFC900;" width="120.727" height="20.531"/>
				<rect x="151.371" y="341.107" style="opacity:0.53;fill:#5A5A66;" width="28.388" height="28.388"/>
				<rect x="187.313" y="341.107" style="opacity:0.28;fill:#5A5A66;" width="28.388" height="28.388"/>
				<rect x="223.033" y="341.107" style="opacity:0.13;fill:#5A5A66;" width="28.387" height="28.388"/>
				<polygon style="fill:#5A5A66;" points="260.077,347.377 260.077,362.435 272.099,354.906 				"/>
				
					<line style="fill:none;stroke:#5A5A66;stroke-width:0.9416;stroke-miterlimit:10;" x1="151.371" y1="379.058" x2="272.099" y2="379.058"/>
				
					<line style="fill:none;stroke:#5A5A66;stroke-width:0.9416;stroke-miterlimit:10;" x1="151.371" y1="387.146" x2="272.099" y2="387.146"/>
				
					<line style="fill:none;stroke:#2F2F35;stroke-width:1.8664;stroke-linecap:round;stroke-miterlimit:10;" x1="168.222" y1="324.62" x2="251.708" y2="324.62"/>
				<path style="fill:#FFFFFF;" d="M179.759,108.061c0,1.912-1.55,3.462-3.462,3.462c-1.912,0-3.462-1.55-3.462-3.462
					c0-1.912,1.55-3.462,3.462-3.462C178.209,104.599,179.759,106.149,179.759,108.061z"/>
				<rect x="237.709" y="166.038" style="fill:#FFC900;" width="35.382" height="16.444"/>
				
					<line style="fill:none;stroke:#5A5A66;stroke-width:0.9416;stroke-linecap:round;stroke-miterlimit:10;" x1="244.48" y1="174.26" x2="265.712" y2="174.26"/>
				<path style="fill:#5A5A66;" d="M252.692,174.324c0,0,3.287,6.012,7.352,6.171c3.065,10.31,8.776,14.227,13.046,16.143
					c22.388,30.417,22.388,30.417,22.388,30.417v-25.039l-28.572-27.692H252.692z"/>
				<g>
					<ellipse style="opacity:0.33;fill:#5A5A66;" cx="212.209" cy="278.869" rx="45.928" ry="7.24"/>
					<path style="fill:#FFC900;" d="M210.373,218.703c-12.149,0-23.678,1.941-34.041,5.421c-1.953,0.656-3.189,2.582-3.014,4.635
						l3.712,43.522c0.299,3.501,3.227,6.19,6.741,6.19h55.597c3.513,0,6.442-2.689,6.741-6.19l3.643-42.703
						c0.172-2.013-1.013-3.907-2.91-4.6C235.863,220.964,223.479,218.703,210.373,218.703z"/>
					<path style="fill:#2F2F35;" d="M173.439,230.176c0.364-1.441,1.426-2.651,2.893-3.144c10.363-3.48,21.892-5.421,34.041-5.421
						c13.107,0,25.49,2.261,36.468,6.275c1.416,0.518,2.435,1.705,2.789,3.111l0.121-1.42c0.172-2.013-1.013-3.907-2.91-4.6
						c-10.978-4.014-23.361-6.275-36.468-6.275c-12.149,0-23.678,1.941-34.041,5.421c-1.953,0.656-3.189,2.582-3.014,4.635
						L173.439,230.176z"/>
					<path style="fill:none;stroke:#2F2F35;stroke-width:1.8664;stroke-miterlimit:10;" d="M177.819,233.618
						c0,2.425-1.966,4.391-4.391,4.391c-2.425,0-4.392-1.966-4.392-4.391c0-2.425,1.966-4.391,4.392-4.391
						C175.853,229.227,177.819,231.193,177.819,233.618z"/>
					<rect x="183.034" y="243.938" style="fill:#2F2F35;" width="57.638" height="1.647"/>
					<path style="fill:none;stroke:#2F2F35;stroke-width:1.8664;stroke-miterlimit:10;" d="M185.458,247.771
						c0,1.207-0.979,2.186-2.186,2.186s-2.186-0.979-2.186-2.186c0-1.207,0.979-2.186,2.186-2.186S185.458,246.563,185.458,247.771z
						"/>
					<path style="fill:#2F2F35;" d="M192.791,234.24c0,2.025-1.642,3.667-3.667,3.667l0,0c-2.025,0-3.667-1.642-3.667-3.667v-4.976
						c0-2.025,1.642-3.667,3.667-3.667l0,0c2.025,0,3.667,1.642,3.667,3.667V234.24z"/>
					<path style="fill:#2F2F35;" d="M227.954,234.24c0,2.025,1.642,3.667,3.666,3.667l0,0c2.025,0,3.666-1.642,3.666-3.667v-4.976
						c0-2.025-1.641-3.667-3.666-3.667l0,0c-2.025,0-3.666,1.642-3.666,3.667V234.24z"/>
					<path style="fill:none;stroke:#FFC900;stroke-width:3.7329;stroke-linecap:round;stroke-miterlimit:10;" d="M189.125,230.715
						c0,0-0.964-65.966,22.41-65.966s20.086,65.966,20.086,65.966"/>
					<path style="fill:#EDB62B;" d="M175.13,250L175.13,250l1.9,22.281c0.299,3.501,3.227,6.19,6.741,6.19h40.41
						C192.289,275.92,175.13,250,175.13,250z"/>
				</g>
			</g>
			<g>
				<path style="fill:#FF7E6E;" d="M382.312,343.724l2.734,83.977h-31.364c0,0,0.129-6.198,8.142-9.808
					c-1.572-74.058-1.572-74.058-1.572-74.058L382.312,343.724z"/>
				<path style="fill:#FF7E6E;" d="M353.682,343.724l-6.329,83.977h-32.672c0,0,2.813-8.594,11.732-9.808
					c5.564-82.684,5.564-82.684,5.564-82.684L353.682,343.724z"/>
				<path style="fill:#0F1201;" d="M382.312,343.724l-22.06,0.11c0,0,0,0.009,0.398,18.749c6.563,1.573,13.992,2.785,22.388,3.452
					L382.312,343.724z"/>
				<path style="fill:#0F1201;" d="M330.96,350.324c5.421,3.543,12.457,7.094,21.473,9.974l1.249-16.574l-21.705-8.516
					C331.977,335.208,331.976,335.216,330.96,350.324z"/>
				<path style="fill:#5A5A66;" d="M345.455,226.973l-30.774,107.363c0,0,35.469,34.773,88.324,7.998
					c-24.959-115.361-24.959-115.361-24.959-115.361l-24.364,1.304L345.455,226.973z"/>
				<path style="fill:#1C2F36;" d="M387.429,131.398c0,0-4.196-8.485-17.26-7.094c-13.064,1.391-22.08,18.56-21.41,35.268
					c0.67,16.708,11.252,31.149,11.252,31.149l32.214-8.24c0,0,6.707-15.019,0-27.213c-6.707-12.194-6.013-21.228-6.013-21.228
					L387.429,131.398z"/>
				<path style="fill:#FF7E6E;" d="M356.148,163.598c0,0-11.313,1.391-20.032,11.475c-8.718,10.084-24.495,26.942-24.495,26.942
					l-24.621-26.056c-2.28-2.413-5.753-3.82-9.427-3.82h-21.519c-1.412,0-2.556,0.959-2.556,2.141v0.043
					c0,1.182,1.144,2.141,2.556,2.141h8.238c0,0,0.83,10.282,4.567,12.02c3.737,1.739,9.134,2.782,9.134,2.782l23.2,25.698
					c4.814,6.023,15.168,6.521,20.775,1l26.603-26.2L356.148,163.598z"/>
				<polygon style="fill:#FF7E6E;" points="367.709,145.275 365.429,164.958 374.189,166.038 374.909,153.781 370.829,144.499 				
					"/>
				<path style="fill:#0F1201;" d="M368.934,144.97l0.147,1.138c0,0,0.372,10.319,5.333,16.113l0.496-8.439l-4.08-9.282
					L368.934,144.97z"/>
				<path style="fill:#FF7E6E;" d="M368.709,142.118c0,0,0,14.08,9.12,17.44c2.08,0.48,9.92-11.36,10.88-19.2
					c0.96-7.84-1.28-8.96-1.28-8.96S373.989,127.718,368.709,142.118z"/>
				<path style="fill:#FF7E6E;" d="M370.13,143.53c0.085,1.834-1.333,3.39-3.168,3.475c-1.834,0.085-3.39-1.333-3.475-3.168
					c-0.085-1.834,1.333-3.39,3.168-3.475C368.489,140.277,370.045,141.695,370.13,143.53z"/>
				<path style="fill:none;stroke:#700B00;stroke-width:0.9332;stroke-linecap:round;stroke-miterlimit:10;" d="M379.318,146.496
					c0,0-0.713-1.782-3.35-2.281"/>
				<path style="fill:none;stroke:#700B00;stroke-width:0.9332;stroke-linecap:round;stroke-miterlimit:10;" d="M383.88,147.707
					c0,0,1.173-0.155,2.332,0.6"/>
				<polyline style="fill:none;stroke:#700B00;stroke-width:0.384;stroke-miterlimit:10;" points="382.312,149.703 381.813,151.698 
					379.96,150.701 				"/>
				<path style="fill:#FFFFFF;" d="M375.684,150.701l5.452,2.708C381.136,153.409,377.679,155.262,375.684,150.701z"/>
				<path style="fill:#0F1201;" d="M348.572,191.765l1.803-6.704l0.831-12.245c0,0-8.383,8.405-8.451,24.678L348.572,191.765z"/>
				<path style="fill:none;stroke:#700B00;stroke-width:0.384;stroke-miterlimit:10;" d="M380.815,142.006
					c0,0-0.998-1.924-4.205-1.212"/>
				<path style="fill:none;stroke:#700B00;stroke-width:0.384;stroke-miterlimit:10;" d="M385.519,143.075
					c0,0,1.704-0.002,2.206,1.424"/>
				<path style="fill:#FFFFFF;" d="M388.883,138.47c0.403-6.122-1.454-7.072-1.454-7.072s-13.44-3.68-18.72,10.72
					C375.425,134.568,385.46,137.248,388.883,138.47z"/>
				<path style="fill:#FFC801;" d="M371.549,161.797l12.995,4.148c0,0-6.246,38.598-6.497,61.027
					c-16.421,6.52-23.985,5.477-32.591,0c2.869-25.558,2.869-25.558,2.869-25.558s-5.738-11.475-0.522-21.907
					c5.216-10.432,8.346-15.909,8.346-15.909L371.549,161.797z"/>
				<path style="fill:#FF7E6E;" d="M384.544,165.945c0,0,5.248,0.782,12.028,12.779c4.586,8.114,14.659,28.037,20.7,40.085
					c2.642,5.269,0.283,11.669-5.143,13.971l-37.334,15.839v3.912c0,0,6.435-0.522,3.804,2.869
					c-2.475,3.19-9.826,5.687-15.226,1.845c-0.636-0.452-1.064-1.149-1.212-1.915c-2.104-10.875-2.037-14.62,3.831-17.143
					c6.064-2.608,34.752-16.952,34.752-16.952l-19.531-33.382l-6.418,1.826L384.544,165.945z"/>
				<path style="opacity:0.5;fill:#FFFFFF;" d="M287.001,175.96c-2.28-2.413-5.753-3.82-9.427-3.82h-11.548
					c0.967,1.981,3.475,5.18,9.855,6.475c9.538,1.935,17.095,13.602,24.093,21.205c6.998,7.603,12.876,10.122,17.075,7.323
					c-2.442-2.345-4.178-4.035-5.361-5.196c-0.04,0.042-0.066,0.07-0.066,0.07L287.001,175.96z"/>
				<path style="fill:#FF7E6E;" d="M371.549,161.797l-11.201,1.31c-1.75,4.286-6.719,17.737-0.809,19.269
					c5.636,1.461,15.534-12.592,19.263-18.263L371.549,161.797z"/>
				<path style="fill:#D19F00;" d="M359.017,215.497c-4.694-4.173-10.693-14.083-10.693-14.083s-0.001,0.011-0.971,8.654
					C352.351,216.514,363.364,219.361,359.017,215.497z"/>
				<path style="fill:#FF7E6E;" d="M378.046,226.973c0.018-1.613,0.07-3.318,0.146-5.078c-4.721,2.493-17.021,7.388-32.302,1.206
					c-0.137,1.225-0.281,2.505-0.435,3.872C354.062,232.449,361.625,233.493,378.046,226.973z"/>
				<path style="opacity:0.49;fill:#CD2E2B;" d="M411.699,227.283c0,1.84,0.503,3.558,1.367,5.04
					c4.752-2.607,6.69-8.559,4.206-13.514c-0.067-0.133-0.137-0.272-0.204-0.407C413.877,220.083,411.699,223.426,411.699,227.283z"
					/>
				<path style="opacity:0.49;fill:#CD2E2B;" d="M320.647,219.079c-2.104-2.45-5.529-4.051-9.408-4.051
					c-3.477,0-6.588,1.288-8.713,3.319C307.302,222.638,315.38,222.984,320.647,219.079z"/>
				
					<line style="fill:none;stroke:#7B3C38;stroke-width:0.4096;stroke-linecap:round;stroke-miterlimit:10;" x1="311.622" y1="202.016" x2="316.658" y2="206.766"/>
				
					<line style="fill:none;stroke:#7B3C38;stroke-width:0.4096;stroke-linecap:round;stroke-miterlimit:10;" x1="400.745" y1="221.235" x2="408.569" y2="217.249"/>
				<path style="fill:#FF7E6E;" d="M384.544,165.945l-3.103-0.991c-3.427,5.556-15.246,27.081-2.067,40.84
					C381.277,186.135,384.544,165.945,384.544,165.945z"/>
				
					<line style="fill:none;stroke:#7B3C38;stroke-width:0.4096;stroke-linecap:round;stroke-miterlimit:10;" x1="359.539" y1="182.376" x2="360.902" y2="178.614"/>
				
					<line style="fill:none;stroke:#7B3C38;stroke-width:0.4096;stroke-linecap:round;stroke-miterlimit:10;" x1="365.429" y1="142.118" x2="366.962" y2="147.005"/>
				<path style="opacity:0.5;fill:#FFFFFF;" d="M396.572,178.725c-4.206-7.44-7.82-10.565-9.96-11.867
					c-1.599,2.262-2.552,6.97,3.017,16.288c9.155,15.318,28.006,41.123,22.5,49.635c5.426-2.302,7.785-8.701,5.143-13.971
					C411.232,206.762,401.158,186.838,396.572,178.725z"/>
				<path style="fill:#0F1201;" d="M381.379,188.135l-3.186-4.637c0,0,0.298,5.33,2.617,9.207L381.379,188.135z"/>
				<path style="fill:#FFC801;" d="M356.992,421.135c-3.228,3.211-3.31,6.565-3.31,6.565h31.364l-0.278-8.528l0,0
					C369.909,425.349,360.539,422.696,356.992,421.135z"/>
				<path style="fill:#FFC801;" d="M319.633,420.797c-3.644,2.926-4.952,6.904-4.952,6.904h32.672l0.61-8.097
					C332.003,425.669,323.323,422.915,319.633,420.797z"/>
				<path style="fill:none;stroke:#7B3C38;stroke-width:0.4096;stroke-linecap:round;stroke-miterlimit:10;" d="M338.93,410.883
					c0,0,0,5.275,6.782,4.019"/>
				<path style="fill:none;stroke:#7B3C38;stroke-width:0.4096;stroke-linecap:round;stroke-miterlimit:10;" d="M375.036,410.883
					c0,0,0,5.275,6.782,4.019"/>
				<path style="fill:#FFC900;" d="M402.474,261.902c-9.316,0.572-18.065,2.604-25.848,5.761c-1.467,0.595-2.324,2.13-2.093,3.696
					l4.898,33.199c0.394,2.67,2.766,4.595,5.461,4.429l42.633-2.62c2.694-0.165,4.813-2.366,4.877-5.064l0.781-32.917
					c0.037-1.551-0.961-2.948-2.448-3.39C422.127,262.435,412.524,261.285,402.474,261.902z"/>
				<path style="fill:#2F2F35;" d="M374.693,272.441c0.211-1.122,0.969-2.1,2.07-2.547c7.783-3.157,16.532-5.189,25.848-5.761
					c10.05-0.618,19.653,0.533,28.26,3.093c1.11,0.33,1.947,1.193,2.285,2.254l0.026-1.095c0.037-1.551-0.961-2.948-2.448-3.39
					c-8.607-2.56-18.21-3.711-28.26-3.093c-9.316,0.572-18.065,2.604-25.848,5.761c-1.467,0.595-2.324,2.13-2.093,3.696
					L374.693,272.441z"/>
				<path style="fill:none;stroke:#2F2F35;stroke-width:1.4339;stroke-miterlimit:10;" d="M378.214,274.874
					c0.114,1.86-1.301,3.46-3.16,3.574c-1.86,0.114-3.46-1.301-3.574-3.16c-0.114-1.86,1.301-3.46,3.16-3.574
					C376.499,271.599,378.1,273.014,378.214,274.874z"/>
				
					<rect x="382.696" y="281.182" transform="matrix(0.9981 -0.0613 0.0613 0.9981 -16.5242 25.3634)" style="fill:#2F2F35;" width="44.281" height="1.265"/>
				<path style="fill:none;stroke:#2F2F35;stroke-width:1.4339;stroke-miterlimit:10;" d="M384.739,285.366
					c0.057,0.926-0.648,1.723-1.573,1.779c-0.926,0.057-1.723-0.647-1.779-1.573c-0.057-0.926,0.648-1.723,1.573-1.779
					C383.886,283.736,384.682,284.44,384.739,285.366z"/>
				<path style="fill:#2F2F35;" d="M389.725,274.645c0.095,1.553-1.086,2.889-2.639,2.984l0,0c-1.553,0.095-2.889-1.086-2.984-2.639
					l-0.234-3.816c-0.095-1.553,1.086-2.889,2.639-2.984l0,0c1.553-0.095,2.889,1.086,2.984,2.639L389.725,274.645z"/>
				<path style="fill:#2F2F35;" d="M416.688,272.988c0.095,1.553,1.432,2.734,2.984,2.639l0,0c1.553-0.095,2.734-1.432,2.639-2.984
					l-0.234-3.816c-0.095-1.553-1.431-2.734-2.984-2.639l0,0c-1.553,0.095-2.734,1.432-2.639,2.984L416.688,272.988z"/>
				<path style="fill:#FFC900;" d="M402.474,261.902c-9.316,0.572-18.065,2.604-25.848,5.761c-1.467,0.595-2.324,2.13-2.093,3.696
					l4.898,33.199c0.394,2.67,2.766,4.595,5.461,4.429l42.633-2.62c2.694-0.165,4.813-2.366,4.877-5.064l0.781-32.917
					c0.037-1.551-0.961-2.948-2.448-3.39C422.127,262.435,412.524,261.285,402.474,261.902z"/>
				<path style="fill:#2F2F35;" d="M374.693,272.441c0.211-1.122,0.969-2.1,2.07-2.547c7.783-3.157,16.532-5.189,25.848-5.761
					c10.05-0.618,19.653,0.533,28.26,3.093c1.11,0.33,1.947,1.193,2.285,2.254l0.026-1.095c0.037-1.551-0.961-2.948-2.448-3.39
					c-8.607-2.56-18.21-3.711-28.26-3.093c-9.316,0.572-18.065,2.604-25.848,5.761c-1.467,0.595-2.324,2.13-2.093,3.696
					L374.693,272.441z"/>
				<path style="fill:none;stroke:#2F2F35;stroke-width:1.4339;stroke-miterlimit:10;" d="M378.214,274.874
					c0.114,1.86-1.301,3.46-3.16,3.574c-1.86,0.114-3.46-1.301-3.574-3.16c-0.114-1.86,1.301-3.46,3.16-3.574
					C376.499,271.599,378.1,273.014,378.214,274.874z"/>
				
					<rect x="382.696" y="281.182" transform="matrix(0.9981 -0.0613 0.0613 0.9981 -16.5242 25.3634)" style="fill:#2F2F35;" width="44.281" height="1.265"/>
				<path style="fill:none;stroke:#2F2F35;stroke-width:1.4339;stroke-miterlimit:10;" d="M384.739,285.366
					c0.057,0.926-0.648,1.723-1.573,1.779c-0.926,0.057-1.723-0.647-1.779-1.573c-0.057-0.926,0.648-1.723,1.573-1.779
					C383.886,283.736,384.682,284.44,384.739,285.366z"/>
				<path style="fill:#2F2F35;" d="M389.725,274.645c0.095,1.553-1.086,2.889-2.639,2.984l0,0c-1.553,0.095-2.889-1.086-2.984-2.639
					l-0.234-3.816c-0.095-1.553,1.086-2.889,2.639-2.984l0,0c1.553-0.095,2.889,1.086,2.984,2.639L389.725,274.645z"/>
				<path style="fill:#2F2F35;" d="M416.688,272.988c0.095,1.553,1.432,2.734,2.984,2.639l0,0c1.553-0.095,2.734-1.432,2.639-2.984
					l-0.234-3.816c-0.095-1.553-1.431-2.734-2.984-2.639l0,0c-1.553,0.095-2.734,1.432-2.639,2.984L416.688,272.988z"/>
				<path style="fill:none;stroke:#FFC900;stroke-width:2.8678;stroke-linecap:round;stroke-miterlimit:10;" d="M386.747,272.115
					c0,0-3.848-50.538,14.075-51.64c17.923-1.101,18.511,49.637,18.511,49.637"/>
				<polygon style="fill:#FF7E6E;" points="381.383,230.829 398.211,222.499 402.866,236.71 383.063,245.112 				"/>
				<path style="fill:#A9A7AA;" d="M433.985,252.893l5.581-10.683c0.365-0.699,1.302-0.846,1.864-0.292l3.448,3.402
					c0.514,0.507,0.453,1.354-0.129,1.781l-9.437,6.93C434.545,254.593,433.546,253.735,433.985,252.893z"/>
				<path style="fill:#A9A7AA;" d="M443.635,270.762l11.495-6.022c0.585-0.307,1.3,0.04,1.421,0.689l0.982,5.235
					c0.112,0.594-0.335,1.147-0.939,1.163l-12.594,0.335C443.213,272.183,442.938,271.127,443.635,270.762z"/>
				<path style="fill:#A9A7AA;" d="M443.553,287.57l13.9,2.355c0.575,0.097,0.892,0.723,0.63,1.244l-2.519,5.021
					c-0.239,0.477-0.848,0.627-1.282,0.315l-11.119-8.002C442.718,288.181,443.011,287.479,443.553,287.57z"/>
				<path style="fill:#FFC900;" d="M371.473,235.644c0,0,9.455-0.356,8.257,10.882c1.769-0.751,2.333-0.99,2.333-0.99
					s0.888-11.581-7.567-11.73C371.473,234.472,371.473,235.644,371.473,235.644z"/>
				<path style="opacity:0.49;fill:#CD2E2B;" d="M374.144,256.788c-1.681,0.36-3.541-7.743-4.502-11.224
					c-0.625-2.264-5.004-3.284-7.99-3.72c-1.273,2.669-0.807,6.682,0.509,13.487c0.148,0.766,0.577,1.462,1.212,1.915
					c4.147,2.951,9.438,2.157,12.794,0.187C375.59,256.984,374.873,256.632,374.144,256.788z"/>
				<path style="opacity:0.5;fill:#FFFFFF;" d="M432.757,286.323c-16.744,2.351-28.437,17.544-31.316,21.647l26.084-1.603
					c2.694-0.166,4.813-2.366,4.877-5.064L432.757,286.323z"/>
				<path style="opacity:0.5;fill:#FFFFFF;" d="M326.413,417.892c-8.919,1.214-11.732,9.808-11.732,9.808h10.184
					c2.344-2.996,6.215-5.904,12.172-8.528c2.499-17.029-3.504-43.538-6.906-56.542
					C329.311,374.825,328.126,392.436,326.413,417.892z"/>
				<path style="opacity:0.5;fill:#FFFFFF;" d="M369.364,419.604c2.853-23.288-6.349-47.021-8.617-52.421
					c0.233,10.957,0.574,27.049,1.076,50.71c-8.012,3.61-8.142,9.808-8.142,9.808h9.066
					C364.246,424.336,366.435,420.834,369.364,419.604z"/>
				<path style="fill:#2F2F35;" d="M322.532,340.337c3.885,2.52,9.137,5.394,15.582,7.714c2.178-10.921,5.147-26.792,7.598-43.493
					c4.46-30.39,5.702-57.52-0.257-42.819C340.648,273.598,327.454,322.048,322.532,340.337z"/>
				<path style="opacity:0.5;fill:#FFFFFF;" d="M370.169,124.304c-9.044,0.963-16.145,9.489-19.438,20.188
					c9.205-18.236,28.072-12.8,28.072-12.8l3.51,2.565l4.254-0.983l0.863-1.875C387.429,131.398,383.233,122.913,370.169,124.304z"
					/>
				<path style="fill:#1C2F36;" d="M388.893,138.404c0,0-8.874,2.069-18.029,1.708C374.007,137.547,379.273,135.614,388.893,138.404
					z"/>
				<path style="opacity:0.5;fill:#FFFFFF;" d="M388.753,134.257l-13.844,2.291c0,0-3.665,9.111,0,21.364l0,0
					c0.852,0.675,1.818,1.24,2.92,1.646c2.08,0.48,9.92-11.36,10.88-19.2C389.054,137.538,388.982,135.598,388.753,134.257z"/>
			</g>
		</g>
	</g>
</g>
</svg>
