<?xml version="1.0" standalone="no"?>
<!DOCTYPE svg PUBLIC "-//W3C//DTD SVG 20010904//EN"
 "http://www.w3.org/TR/2001/REC-SVG-20010904/DTD/svg10.dtd">
<svg version="1.0" xmlns="http://www.w3.org/2000/svg"
 width="359.000000pt" height="112.000000pt" viewBox="0 0 359.000000 112.000000"
 preserveAspectRatio="xMidYMid meet">

<g transform="translate(0.000000,112.000000) scale(0.100000,-0.100000)"
fill="#000000" stroke="none">
<path d="M373 920 c-131 -75 -221 -282 -194 -449 28 -171 146 -297 289 -309
93 -8 190 46 233 129 28 55 7 99 -47 99 -8 0 -34 -18 -58 -40 -54 -50 -84 -52
-121 -9 -38 46 -30 59 46 78 106 27 199 112 215 198 23 122 -42 259 -148 314
-60 31 -150 26 -215 -11z m194 -182 c28 -26 32 -101 7 -137 -15 -21 -110 -71
-134 -71 -20 0 -10 104 14 156 35 75 71 92 113 52z"/>
<path d="M1404 931 c-153 -71 -242 -260 -214 -453 35 -239 237 -381 411 -290
122 63 164 202 62 202 -11 0 -37 -18 -58 -40 -49 -50 -82 -53 -118 -10 -38 45
-51 96 -51 195 0 105 23 176 67 209 26 19 29 19 54 4 15 -9 35 -31 44 -48 27
-50 50 -70 80 -70 99 0 63 205 -49 282 -40 28 -57 33 -117 36 -53 2 -80 -2
-111 -17z"/>
<path d="M3171 920 c-23 -17 -57 -53 -77 -80 -20 -28 -39 -50 -42 -50 -4 0
-17 15 -29 34 -64 99 -181 75 -241 -51 -9 -18 -18 -33 -22 -33 -3 0 -11 19
-17 43 -15 56 -45 93 -88 107 -30 10 -41 9 -72 -7 -67 -33 -78 -67 -77 -233 2
-278 79 -470 187 -470 51 0 74 33 97 138 32 141 72 282 80 282 4 0 13 -28 20
-62 20 -105 46 -138 108 -138 42 0 65 32 102 142 36 107 92 216 106 208 10 -6
10 -33 -5 -243 -6 -82 -11 -184 -11 -227 0 -73 2 -80 26 -99 48 -38 106 -23
129 32 7 18 27 109 45 202 52 275 36 436 -52 510 -44 37 -111 35 -167 -5z"/>
<path d="M1980 893 c-59 -29 -108 -86 -147 -169 -26 -55 -28 -68 -28 -184 0
-117 2 -129 29 -188 36 -79 126 -166 189 -183 96 -26 195 8 274 94 77 83 113
181 113 308 0 99 -20 164 -74 237 -58 79 -108 103 -221 107 -74 3 -90 0 -135
-22z m232 -170 c38 -41 51 -94 46 -187 -12 -235 -197 -282 -198 -51 0 33 5 78
11 100 15 56 81 165 100 165 8 0 27 -12 41 -27z"/>
<path d="M914 375 c-79 -40 -86 -150 -12 -195 63 -38 126 -20 158 45 18 37 19
46 8 80 -23 67 -95 100 -154 70z"/>
</g>
</svg>
